<mxfile host="app.diagrams.net" modified="2023-02-02T03:16:01.127Z" agent="5.0 (Windows NT 10.0; Win64; x64) AppleWebKit/537.36 (KHTML, like Gecko) Chrome/109.0.0.0 Safari/537.36" etag="mRyO22OwsTKeHg5anbJP" version="20.8.11" type="github">
  <diagram name="PÃ¡gina-1" id="XEysf7W0tJwCfX9NbGjx">
    <mxGraphModel dx="1434" dy="790" grid="1" gridSize="10" guides="1" tooltips="1" connect="1" arrows="1" fold="1" page="1" pageScale="1" pageWidth="827" pageHeight="1169" math="0" shadow="0">
      <root>
        <mxCell id="0" />
        <mxCell id="1" parent="0" />
        <mxCell id="hqM8r6uwuY-SywZkjEzf-5" value="Paciente" style="whiteSpace=wrap;html=1;align=center;" vertex="1" parent="1">
          <mxGeometry x="60" y="170" width="100" height="40" as="geometry" />
        </mxCell>
        <mxCell id="hqM8r6uwuY-SywZkjEzf-9" value="&lt;span style=&quot;border-bottom: 1px dotted&quot;&gt;Nombre de paciente&lt;/span&gt;" style="ellipse;whiteSpace=wrap;html=1;align=center;" vertex="1" parent="1">
          <mxGeometry x="380" y="40" width="100" height="40" as="geometry" />
        </mxCell>
        <mxCell id="hqM8r6uwuY-SywZkjEzf-10" value="&lt;span style=&quot;border-bottom: 1px dotted&quot;&gt;contacto de emergencia&lt;/span&gt;" style="ellipse;whiteSpace=wrap;html=1;align=center;" vertex="1" parent="1">
          <mxGeometry x="10" y="290" width="100" height="40" as="geometry" />
        </mxCell>
        <mxCell id="hqM8r6uwuY-SywZkjEzf-11" value="&lt;span style=&quot;border-bottom: 1px dotted&quot;&gt;Edad&lt;/span&gt;" style="ellipse;whiteSpace=wrap;html=1;align=center;" vertex="1" parent="1">
          <mxGeometry x="120" y="290" width="100" height="40" as="geometry" />
        </mxCell>
        <mxCell id="hqM8r6uwuY-SywZkjEzf-12" value="Doctor" style="whiteSpace=wrap;html=1;align=center;" vertex="1" parent="1">
          <mxGeometry x="310" y="170" width="100" height="40" as="geometry" />
        </mxCell>
        <mxCell id="hqM8r6uwuY-SywZkjEzf-13" value="&lt;span style=&quot;border-bottom: 1px dotted&quot;&gt;contacto de emergencia&lt;/span&gt;" style="ellipse;whiteSpace=wrap;html=1;align=center;" vertex="1" parent="1">
          <mxGeometry x="250" y="290" width="100" height="40" as="geometry" />
        </mxCell>
        <mxCell id="hqM8r6uwuY-SywZkjEzf-14" value="&lt;span style=&quot;border-bottom: 1px dotted&quot;&gt;Edad&lt;/span&gt;" style="ellipse;whiteSpace=wrap;html=1;align=center;" vertex="1" parent="1">
          <mxGeometry x="360" y="290" width="100" height="40" as="geometry" />
        </mxCell>
        <mxCell id="hqM8r6uwuY-SywZkjEzf-15" value="Detalle de consulta" style="whiteSpace=wrap;html=1;align=center;" vertex="1" parent="1">
          <mxGeometry x="180" y="40" width="100" height="40" as="geometry" />
        </mxCell>
        <mxCell id="hqM8r6uwuY-SywZkjEzf-19" value="" style="endArrow=none;html=1;rounded=0;entryX=0.5;entryY=1;entryDx=0;entryDy=0;exitX=0.5;exitY=0;exitDx=0;exitDy=0;" edge="1" parent="1" source="hqM8r6uwuY-SywZkjEzf-10" target="hqM8r6uwuY-SywZkjEzf-5">
          <mxGeometry relative="1" as="geometry">
            <mxPoint x="70" y="260" as="sourcePoint" />
            <mxPoint x="230" y="260" as="targetPoint" />
          </mxGeometry>
        </mxCell>
        <mxCell id="hqM8r6uwuY-SywZkjEzf-20" value="" style="endArrow=none;html=1;rounded=0;exitX=0.75;exitY=1;exitDx=0;exitDy=0;entryX=0.5;entryY=0;entryDx=0;entryDy=0;" edge="1" parent="1" source="hqM8r6uwuY-SywZkjEzf-5" target="hqM8r6uwuY-SywZkjEzf-11">
          <mxGeometry relative="1" as="geometry">
            <mxPoint x="150" y="240" as="sourcePoint" />
            <mxPoint x="160" y="280" as="targetPoint" />
          </mxGeometry>
        </mxCell>
        <mxCell id="hqM8r6uwuY-SywZkjEzf-21" value="" style="endArrow=none;html=1;rounded=0;exitX=0.44;exitY=-0.025;exitDx=0;exitDy=0;exitPerimeter=0;entryX=0.25;entryY=1;entryDx=0;entryDy=0;" edge="1" parent="1" source="hqM8r6uwuY-SywZkjEzf-13" target="hqM8r6uwuY-SywZkjEzf-12">
          <mxGeometry relative="1" as="geometry">
            <mxPoint x="340" y="250" as="sourcePoint" />
            <mxPoint x="500" y="250" as="targetPoint" />
          </mxGeometry>
        </mxCell>
        <mxCell id="hqM8r6uwuY-SywZkjEzf-22" value="" style="endArrow=none;html=1;rounded=0;exitX=0.75;exitY=1;exitDx=0;exitDy=0;entryX=0.5;entryY=0;entryDx=0;entryDy=0;" edge="1" parent="1" source="hqM8r6uwuY-SywZkjEzf-12" target="hqM8r6uwuY-SywZkjEzf-14">
          <mxGeometry relative="1" as="geometry">
            <mxPoint x="430" y="240" as="sourcePoint" />
            <mxPoint x="400" y="280" as="targetPoint" />
          </mxGeometry>
        </mxCell>
        <mxCell id="hqM8r6uwuY-SywZkjEzf-23" value="" style="endArrow=none;html=1;rounded=0;exitX=0.91;exitY=1.05;exitDx=0;exitDy=0;exitPerimeter=0;entryX=0.4;entryY=-0.05;entryDx=0;entryDy=0;entryPerimeter=0;" edge="1" parent="1" source="hqM8r6uwuY-SywZkjEzf-15" target="hqM8r6uwuY-SywZkjEzf-12">
          <mxGeometry relative="1" as="geometry">
            <mxPoint x="280" y="130" as="sourcePoint" />
            <mxPoint x="440" y="130" as="targetPoint" />
          </mxGeometry>
        </mxCell>
        <mxCell id="hqM8r6uwuY-SywZkjEzf-24" value="" style="endArrow=none;html=1;rounded=0;" edge="1" parent="1">
          <mxGeometry relative="1" as="geometry">
            <mxPoint x="280" y="60" as="sourcePoint" />
            <mxPoint x="380" y="60" as="targetPoint" />
          </mxGeometry>
        </mxCell>
      </root>
    </mxGraphModel>
  </diagram>
</mxfile>
